<?xml version="1.0" encoding="UTF-8" standalone="no"?>
<!DOCTYPE svg PUBLIC "-//W3C//DTD SVG 1.1//EN" "http://www.w3.org/Graphics/SVG/1.1/DTD/svg11.dtd">
<svg width="100%" height="100%" viewBox="0 0 450 450" version="1.1" xmlns="http://www.w3.org/2000/svg" xmlns:xlink="http://www.w3.org/1999/xlink" xml:space="preserve" xmlns:serif="http://www.serif.com/" style="fill-rule:evenodd;clip-rule:evenodd;stroke-linecap:round;stroke-linejoin:round;stroke-miterlimit:1.5;">
    <g transform="matrix(1,0,0,1,2,-1)">
        <circle cx="194.371" cy="225.387" r="26.08" style="fill:rgb(255,255,117);stroke:black;stroke-width:1.5px;"/>
    </g>
    <g transform="matrix(1,0,0,1,64,-1)">
        <circle cx="194.371" cy="225.387" r="26.08" style="fill:rgb(255,255,117);stroke:black;stroke-width:1.5px;"/>
    </g>
    <g>
        <g transform="matrix(1,0,0,1,191,-45)">
            <path d="M168.512,221.981C161.947,216.822 157.728,208.811 157.728,199.822C157.728,184.277 170.349,171.656 185.894,171.656C201.44,171.656 214.061,184.277 214.061,199.822C214.061,202.382 213.718,204.863 213.077,207.221C217.64,211.919 220.451,218.327 220.451,225.387C220.451,239.781 208.765,251.467 194.371,251.467C179.978,251.467 168.291,239.781 168.291,225.387C168.291,224.232 168.367,223.096 168.512,221.981Z" style="stroke:black;stroke-width:1.5px;"/>
        </g>
        <g transform="matrix(1,0,0,1,198,-47)">
            <path d="M168.512,221.981C161.947,216.822 157.728,208.811 157.728,199.822C157.728,184.277 170.349,171.656 185.894,171.656C201.44,171.656 214.061,184.277 214.061,199.822C214.061,202.382 213.718,204.863 213.077,207.221C217.64,211.919 220.451,218.327 220.451,225.387C220.451,239.781 208.765,251.467 194.371,251.467C179.978,251.467 168.291,239.781 168.291,225.387C168.291,224.232 168.367,223.096 168.512,221.981Z" style="fill:rgb(98,98,252);stroke:black;stroke-width:1.5px;"/>
        </g>
    </g>
    <g transform="matrix(0.766044,-0.642788,0.642788,0.766044,-91.7671,199.009)">
        <g transform="matrix(1,0,0,1,191,-45)">
            <path d="M168.512,221.981C161.947,216.822 157.728,208.811 157.728,199.822C157.728,184.277 170.349,171.656 185.894,171.656C201.44,171.656 214.061,184.277 214.061,199.822C214.061,202.382 213.718,204.863 213.077,207.221C217.64,211.919 220.451,218.327 220.451,225.387C220.451,239.781 208.765,251.467 194.371,251.467C179.978,251.467 168.291,239.781 168.291,225.387C168.291,224.232 168.367,223.096 168.512,221.981Z" style="stroke:black;stroke-width:1.5px;"/>
        </g>
        <g transform="matrix(1,0,0,1,198,-47)">
            <path d="M168.512,221.981C161.947,216.822 157.728,208.811 157.728,199.822C157.728,184.277 170.349,171.656 185.894,171.656C201.44,171.656 214.061,184.277 214.061,199.822C214.061,202.382 213.718,204.863 213.077,207.221C217.64,211.919 220.451,218.327 220.451,225.387C220.451,239.781 208.765,251.467 194.371,251.467C179.978,251.467 168.291,239.781 168.291,225.387C168.291,224.232 168.367,223.096 168.512,221.981Z" style="fill:rgb(98,98,252);stroke:black;stroke-width:1.5px;"/>
        </g>
    </g>
    <g transform="matrix(0.766044,0.642788,-0.642788,0.766044,197.111,-93.8859)">
        <g transform="matrix(1,0,0,1,191,-45)">
            <path d="M168.512,221.981C161.947,216.822 157.728,208.811 157.728,199.822C157.728,184.277 170.349,171.656 185.894,171.656C201.44,171.656 214.061,184.277 214.061,199.822C214.061,202.382 213.718,204.863 213.077,207.221C217.64,211.919 220.451,218.327 220.451,225.387C220.451,239.781 208.765,251.467 194.371,251.467C179.978,251.467 168.291,239.781 168.291,225.387C168.291,224.232 168.367,223.096 168.512,221.981Z" style="stroke:black;stroke-width:1.5px;"/>
        </g>
        <g transform="matrix(1,0,0,1,198,-47)">
            <path d="M168.512,221.981C161.947,216.822 157.728,208.811 157.728,199.822C157.728,184.277 170.349,171.656 185.894,171.656C201.44,171.656 214.061,184.277 214.061,199.822C214.061,202.382 213.718,204.863 213.077,207.221C217.64,211.919 220.451,218.327 220.451,225.387C220.451,239.781 208.765,251.467 194.371,251.467C179.978,251.467 168.291,239.781 168.291,225.387C168.291,224.232 168.367,223.096 168.512,221.981Z" style="fill:rgb(98,98,252);stroke:black;stroke-width:1.5px;"/>
        </g>
    </g>
    <g transform="matrix(0.173648,0.984808,-0.984808,0.173648,408.041,-38.5516)">
        <g transform="matrix(1,0,0,1,191,-45)">
            <path d="M168.512,221.981C161.947,216.822 157.728,208.811 157.728,199.822C157.728,184.277 170.349,171.656 185.894,171.656C201.44,171.656 214.061,184.277 214.061,199.822C214.061,202.382 213.718,204.863 213.077,207.221C217.64,211.919 220.451,218.327 220.451,225.387C220.451,239.781 208.765,251.467 194.371,251.467C179.978,251.467 168.291,239.781 168.291,225.387C168.291,224.232 168.367,223.096 168.512,221.981Z" style="stroke:black;stroke-width:1.5px;"/>
        </g>
        <g transform="matrix(1,0,0,1,198,-47)">
            <path d="M168.512,221.981C161.947,216.822 157.728,208.811 157.728,199.822C157.728,184.277 170.349,171.656 185.894,171.656C201.44,171.656 214.061,184.277 214.061,199.822C214.061,202.382 213.718,204.863 213.077,207.221C217.64,211.919 220.451,218.327 220.451,225.387C220.451,239.781 208.765,251.467 194.371,251.467C179.978,251.467 168.291,239.781 168.291,225.387C168.291,224.232 168.367,223.096 168.512,221.981Z" style="fill:rgb(98,98,252);stroke:black;stroke-width:1.5px;"/>
        </g>
    </g>
    <g transform="matrix(-0.5,0.866025,-0.866025,-0.5,535.465,138.848)">
        <g transform="matrix(1,0,0,1,191,-45)">
            <path d="M168.512,221.981C161.947,216.822 157.728,208.811 157.728,199.822C157.728,184.277 170.349,171.656 185.894,171.656C201.44,171.656 214.061,184.277 214.061,199.822C214.061,202.382 213.718,204.863 213.077,207.221C217.64,211.919 220.451,218.327 220.451,225.387C220.451,239.781 208.765,251.467 194.371,251.467C179.978,251.467 168.291,239.781 168.291,225.387C168.291,224.232 168.367,223.096 168.512,221.981Z" style="stroke:black;stroke-width:1.5px;"/>
        </g>
        <g transform="matrix(1,0,0,1,198,-47)">
            <path d="M168.512,221.981C161.947,216.822 157.728,208.811 157.728,199.822C157.728,184.277 170.349,171.656 185.894,171.656C201.44,171.656 214.061,184.277 214.061,199.822C214.061,202.382 213.718,204.863 213.077,207.221C217.64,211.919 220.451,218.327 220.451,225.387C220.451,239.781 208.765,251.467 194.371,251.467C179.978,251.467 168.291,239.781 168.291,225.387C168.291,224.232 168.367,223.096 168.512,221.981Z" style="fill:rgb(98,98,252);stroke:black;stroke-width:1.5px;"/>
        </g>
    </g>
    <g transform="matrix(-0.939693,0.34202,-0.34202,-0.939693,516.427,356.269)">
        <g transform="matrix(1,0,0,1,191,-45)">
            <path d="M168.512,221.981C161.947,216.822 157.728,208.811 157.728,199.822C157.728,184.277 170.349,171.656 185.894,171.656C201.44,171.656 214.061,184.277 214.061,199.822C214.061,202.382 213.718,204.863 213.077,207.221C217.64,211.919 220.451,218.327 220.451,225.387C220.451,239.781 208.765,251.467 194.371,251.467C179.978,251.467 168.291,239.781 168.291,225.387C168.291,224.232 168.367,223.096 168.512,221.981Z" style="stroke:black;stroke-width:1.5px;"/>
        </g>
        <g transform="matrix(1,0,0,1,198,-47)">
            <path d="M168.512,221.981C161.947,216.822 157.728,208.811 157.728,199.822C157.728,184.277 170.349,171.656 185.894,171.656C201.44,171.656 214.061,184.277 214.061,199.822C214.061,202.382 213.718,204.863 213.077,207.221C217.64,211.919 220.451,218.327 220.451,225.387C220.451,239.781 208.765,251.467 194.371,251.467C179.978,251.467 168.291,239.781 168.291,225.387C168.291,224.232 168.367,223.096 168.512,221.981Z" style="fill:rgb(98,98,252);stroke:black;stroke-width:1.5px;"/>
        </g>
    </g>
    <g transform="matrix(0.173648,-0.984808,0.984808,0.173648,-32.7361,409)">
        <g transform="matrix(1,0,0,1,191,-45)">
            <path d="M168.512,221.981C161.947,216.822 157.728,208.811 157.728,199.822C157.728,184.277 170.349,171.656 185.894,171.656C201.44,171.656 214.061,184.277 214.061,199.822C214.061,202.382 213.718,204.863 213.077,207.221C217.64,211.919 220.451,218.327 220.451,225.387C220.451,239.781 208.765,251.467 194.371,251.467C179.978,251.467 168.291,239.781 168.291,225.387C168.291,224.232 168.367,223.096 168.512,221.981Z" style="stroke:black;stroke-width:1.5px;"/>
        </g>
        <g transform="matrix(1,0,0,1,198,-47)">
            <path d="M168.512,221.981C161.947,216.822 157.728,208.811 157.728,199.822C157.728,184.277 170.349,171.656 185.894,171.656C201.44,171.656 214.061,184.277 214.061,199.822C214.061,202.382 213.718,204.863 213.077,207.221C217.64,211.919 220.451,218.327 220.451,225.387C220.451,239.781 208.765,251.467 194.371,251.467C179.978,251.467 168.291,239.781 168.291,225.387C168.291,224.232 168.367,223.096 168.512,221.981Z" style="fill:rgb(98,98,252);stroke:black;stroke-width:1.5px;"/>
        </g>
    </g>
    <g transform="matrix(-0.5,-0.866025,0.866025,-0.5,147.058,533.283)">
        <g transform="matrix(1,0,0,1,191,-45)">
            <path d="M168.512,221.981C161.947,216.822 157.728,208.811 157.728,199.822C157.728,184.277 170.349,171.656 185.894,171.656C201.44,171.656 214.061,184.277 214.061,199.822C214.061,202.382 213.718,204.863 213.077,207.221C217.64,211.919 220.451,218.327 220.451,225.387C220.451,239.781 208.765,251.467 194.371,251.467C179.978,251.467 168.291,239.781 168.291,225.387C168.291,224.232 168.367,223.096 168.512,221.981Z" style="stroke:black;stroke-width:1.5px;"/>
        </g>
        <g transform="matrix(1,0,0,1,198,-47)">
            <path d="M168.512,221.981C161.947,216.822 157.728,208.811 157.728,199.822C157.728,184.277 170.349,171.656 185.894,171.656C201.44,171.656 214.061,184.277 214.061,199.822C214.061,202.382 213.718,204.863 213.077,207.221C217.64,211.919 220.451,218.327 220.451,225.387C220.451,239.781 208.765,251.467 194.371,251.467C179.978,251.467 168.291,239.781 168.291,225.387C168.291,224.232 168.367,223.096 168.512,221.981Z" style="fill:rgb(98,98,252);stroke:black;stroke-width:1.5px;"/>
        </g>
    </g>
    <g transform="matrix(-0.939693,-0.34202,0.34202,-0.939693,364.981,512.412)">
        <g transform="matrix(1,0,0,1,191,-45)">
            <path d="M168.512,221.981C161.947,216.822 157.728,208.811 157.728,199.822C157.728,184.277 170.349,171.656 185.894,171.656C201.44,171.656 214.061,184.277 214.061,199.822C214.061,202.382 213.718,204.863 213.077,207.221C217.64,211.919 220.451,218.327 220.451,225.387C220.451,239.781 208.765,251.467 194.371,251.467C179.978,251.467 168.291,239.781 168.291,225.387C168.291,224.232 168.367,223.096 168.512,221.981Z" style="stroke:black;stroke-width:1.5px;"/>
        </g>
        <g transform="matrix(1,0,0,1,198,-47)">
            <path d="M168.512,221.981C161.947,216.822 157.728,208.811 157.728,199.822C157.728,184.277 170.349,171.656 185.894,171.656C201.44,171.656 214.061,184.277 214.061,199.822C214.061,202.382 213.718,204.863 213.077,207.221C217.64,211.919 220.451,218.327 220.451,225.387C220.451,239.781 208.765,251.467 194.371,251.467C179.978,251.467 168.291,239.781 168.291,225.387C168.291,224.232 168.367,223.096 168.512,221.981Z" style="fill:rgb(98,98,252);stroke:black;stroke-width:1.5px;"/>
        </g>
    </g>
</svg>
